<svg width="18" height="24" viewBox="0 0 18 24" fill="none" xmlns="http://www.w3.org/2000/svg">
<path d="M12.9166 6.16667C12.9166 8.32978 11.163 10.0833 8.99992 10.0833V11.5833C11.9915 11.5833 14.4166 9.15821 14.4166 6.16667H12.9166ZM8.99992 10.0833C6.8368 10.0833 5.08325 8.32978 5.08325 6.16667H3.58325C3.58325 9.15821 6.00838 11.5833 8.99992 11.5833V10.0833ZM5.08325 6.16667C5.08325 4.00355 6.8368 2.25 8.99992 2.25V0.75C6.00838 0.75 3.58325 3.17512 3.58325 6.16667H5.08325ZM8.99992 2.25C11.163 2.25 12.9166 4.00355 12.9166 6.16667H14.4166C14.4166 3.17512 11.9915 0.75 8.99992 0.75V2.25ZM16.4166 18.4167C16.4166 19.1071 15.8374 19.9341 14.4392 20.6332C13.0859 21.3098 11.1639 21.75 8.99992 21.75V23.25C11.3463 23.25 13.5076 22.7761 15.11 21.9748C16.6676 21.196 17.9166 19.9814 17.9166 18.4167H16.4166ZM8.99992 21.75C6.83594 21.75 4.91391 21.3098 3.56062 20.6332C2.16248 19.9341 1.58325 19.1071 1.58325 18.4167H0.083252C0.083252 19.9814 1.3322 21.196 2.8898 21.9748C4.49227 22.7761 6.65357 23.25 8.99992 23.25V21.75ZM1.58325 18.4167C1.58325 17.7262 2.16248 16.8992 3.56062 16.2001C4.91391 15.5235 6.83594 15.0833 8.99992 15.0833V13.5833C6.65357 13.5833 4.49227 14.0573 2.8898 14.8585C1.3322 15.6373 0.083252 16.852 0.083252 18.4167H1.58325ZM8.99992 15.0833C11.1639 15.0833 13.0859 15.5235 14.4392 16.2001C15.8374 16.8992 16.4166 17.7262 16.4166 18.4167H17.9166C17.9166 16.852 16.6676 15.6373 15.11 14.8585C13.5076 14.0573 11.3463 13.5833 8.99992 13.5833V15.0833Z" fill="white"/>
</svg>
