<svg width="22" height="22" viewBox="0 0 22 22" fill="none" xmlns="http://www.w3.org/2000/svg">
<g clip-path="url(#clip0_366_260)">
<path d="M17.2222 20.7777H18.7777C19.8823 20.7777 20.7777 19.8823 20.7777 18.7777V16.6997C20.7777 15.8819 20.2798 15.1465 19.5205 14.8427L17.0543 13.8562C16.0885 13.4699 14.9878 13.8884 14.5226 14.8188L14.2592 15.3456C14.2592 15.3456 11.5432 14.8024 9.37032 12.6296C7.19748 10.4567 6.65427 7.74069 6.65427 7.74069L7.18112 7.47726C8.11149 7.01208 8.52996 5.9114 8.14365 4.94562L7.15715 2.47939C6.85343 1.72007 6.11801 1.22217 5.3002 1.22217H3.22217C2.1176 1.22217 1.22217 2.1176 1.22217 3.22217V4.77772C1.22217 13.6143 8.38562 20.7777 17.2222 20.7777Z" stroke="white" stroke-opacity="0.5" stroke-width="1.5" stroke-linejoin="round"/>
</g>
<defs>
<clipPath id="clip0_366_260">
<rect width="22" height="22" fill="white"/>
</clipPath>
</defs>
</svg>
