<svg width="17" height="18" viewBox="0 0 17 18" fill="none" xmlns="http://www.w3.org/2000/svg">
<path fill-rule="evenodd" clip-rule="evenodd" d="M4.61488 0H10.538C10.5434 1.5399 10.5445 3.07987 10.5414 4.61993C10.5411 4.79948 10.5519 4.9284 10.574 5.0067C10.6512 5.28053 10.8744 5.50305 11.1491 5.5827C11.2203 5.60325 11.3242 5.61353 11.4607 5.61353C13.3033 5.61383 15.1467 5.6139 16.9908 5.61375C16.9932 5.61375 16.9956 5.61472 16.9973 5.61645C16.999 5.61818 17 5.62053 17 5.62298C17 8.51243 16.9992 11.4025 16.9975 14.2931C16.9975 14.6833 16.7642 15.021 16.3887 15.1288C16.3183 15.149 16.2175 15.1592 16.0861 15.1592C12.3133 15.1594 8.54038 15.1595 4.76743 15.1594C4.60287 15.1594 4.48258 15.1484 4.40653 15.1265C4.13473 15.0487 3.914 14.8262 3.83548 14.5532C3.81433 14.4796 3.80375 14.368 3.80375 14.2184C3.8036 9.75082 3.80353 5.28323 3.80353 0.815625C3.80353 0.365175 4.1786 0.035775 4.61488 0ZM11.6931 5.01502C11.429 4.9365 11.2139 4.71465 11.136 4.44802C11.1155 4.37767 11.1051 4.27522 11.105 4.14067C11.1045 2.77732 11.1045 1.41405 11.105 0.0508488C11.105 0.0487488 11.1033 0.0416238 11.1 0.0294738C11.099 0.0249738 11.099 0.0196488 11.1 0.0134988C11.1003 0.0122648 11.1008 0.0111182 11.1017 0.0101722C11.1025 0.00922625 11.1035 0.00851361 11.1047 0.00810467C11.106 0.00769572 11.1073 0.00760461 11.1085 0.00784034C11.1098 0.00807606 11.111 0.00863046 11.112 0.00944881L16.982 5.04067C16.9916 5.04892 16.9901 5.05312 16.9775 5.05327C15.3638 5.06152 13.7512 5.0613 12.1398 5.0526C11.9224 5.0514 11.7735 5.03887 11.6931 5.01502ZM1.6028 18H13.2184C13.5665 17.9714 13.866 17.7467 13.9692 17.4155C13.9943 17.3351 14.008 17.2061 14.0104 17.0285C14.014 16.7474 14.0145 16.4666 14.0118 16.1861C14.0118 16.1838 14.0109 16.1816 14.0093 16.18C14.0084 16.1792 14.0075 16.1785 14.0064 16.1781C14.0054 16.1777 14.0043 16.1775 14.0032 16.1775H3.96485C3.7715 16.1775 3.63215 16.1663 3.5468 16.144C3.20323 16.0538 2.9204 15.7331 2.9204 15.3563V2.84985C2.9204 2.84746 2.91945 2.84517 2.91776 2.84349C2.91608 2.8418 2.91379 2.84085 2.9114 2.84085C2.52695 2.84055 2.14303 2.84055 1.75963 2.84085C1.61638 2.841 1.50725 2.85142 1.43225 2.87213C1.10555 2.96257 0.81665 3.28095 0.81665 3.63375V17.0795C0.81665 17.5939 1.08395 17.9258 1.6028 18Z" fill="white" fill-opacity="0.5"/>
</svg>
