<svg width="33" height="30" viewBox="0 0 33 30" fill="none" xmlns="http://www.w3.org/2000/svg">
<path fill-rule="evenodd" clip-rule="evenodd" d="M29.3038 12.9727C29.2169 12.9702 29.1301 12.9676 29.0438 12.9643C29.0402 12.9642 29.0367 12.9637 29.0336 12.9628C29.0286 12.9614 29.0243 12.9592 29.0205 12.956C29.0164 12.9526 29.0131 12.9481 29.0104 12.9426C28.172 11.1819 27.3497 9.41293 26.5274 7.64396C25.8789 6.24905 25.2304 4.85414 24.5741 3.46332C24.5216 3.35196 24.4692 3.24017 24.4166 3.12812L24.4136 3.12158L24.4132 3.12076C24.0329 2.30961 23.6468 1.48633 23.1638 0.735596C22.7461 0.087139 22.0124 -0.0198052 21.3029 0.00271037C21.1354 0.00806936 21.0188 0.0250886 20.9531 0.053768C20.3002 0.337598 19.0481 0.910479 17.1966 1.77241C11.8548 4.25851 6.52374 6.76767 1.20339 9.29988L1.16452 9.31834C0.969122 9.41093 0.741963 9.51856 0.593914 9.68622C0.351876 9.96 0.0986103 10.3343 0.0363047 10.7005C-0.00699903 10.953 -0.0017382 11.2278 0.00332634 11.4932V11.4941C0.00485748 11.5736 0.00634936 11.6523 0.00654566 11.7293C0.00654566 11.7332 0.00685974 11.7371 0.0074879 11.7409C0.00784124 11.743 0.0082731 11.7451 0.00882274 11.7471C0.0107072 11.7541 0.013691 11.7607 0.0178133 11.7671C0.0765069 11.8553 0.123344 11.9671 0.160994 12.0571C0.175717 12.0923 0.189026 12.1241 0.201118 12.1498C1.58142 15.1132 2.9649 18.0754 4.3516 21.0361C4.70271 21.7858 5.06319 22.5308 5.43306 23.2714C5.60726 23.62 5.74046 23.8618 5.83265 23.9966C5.96688 24.1929 6.12517 24.3426 6.28732 24.4959L6.28767 24.4963C6.32069 24.5275 6.35386 24.5588 6.38704 24.5908C6.39183 24.5954 6.3952 24.6005 6.39724 24.6059C6.39968 24.6124 6.40015 24.6194 6.3987 24.627C6.39348 24.6551 6.40592 24.6825 6.40592 24.7046C6.41102 25.6965 6.42323 26.6883 6.44251 27.6799C6.44679 27.9056 6.459 28.1309 6.4791 28.3557C6.54906 29.1421 7.31891 29.6832 7.98547 29.959C8.02661 29.9761 8.06929 29.9878 8.11342 29.9942C8.14054 29.9982 8.16826 30.0001 8.19653 30C9.46392 29.9984 10.7313 29.9971 11.9987 29.9958C17.4018 29.9904 22.805 29.985 28.208 29.9538C28.29 29.9535 28.3718 29.9454 28.4483 29.9396C28.4906 29.9363 28.5313 29.9338 28.5694 29.9337C29.2097 29.9337 29.8496 29.9252 30.4891 29.9083C31.0318 29.8943 31.5082 29.4605 31.8025 29.0291C32.0481 28.6689 32.1141 28.3352 32.1265 27.903C32.1485 27.1328 32.1604 26.3624 32.1623 25.5918C32.1636 25.0696 32.1653 24.5473 32.1669 24.025C32.1754 21.3404 32.1839 18.6546 32.1458 15.971C32.1399 15.5623 32.1103 15.1076 32.057 14.607C32.0131 14.1945 31.8274 13.9356 31.5319 13.6345C30.9293 13.0206 30.1088 12.9964 29.3038 12.9727ZM22.7852 7.92041C22.6888 7.71453 22.5892 7.50205 22.4563 7.34323C22.4466 7.3317 22.4344 7.32809 22.4197 7.33237C22.2419 7.38474 22.0717 7.46754 21.9012 7.55048C21.7837 7.60764 21.6661 7.66488 21.5457 7.71229C21.5363 7.71606 21.5277 7.71616 21.5199 7.71258C21.5155 7.71056 21.5114 7.70738 21.5075 7.70304C21.3652 7.54063 21.2611 7.30383 21.2032 7.0972C21.2017 7.09184 21.2021 7.08615 21.2043 7.08109C21.2065 7.07604 21.2103 7.07192 21.2152 7.06947C21.6497 6.84539 22.0942 6.64357 22.5487 6.46402C23.0464 6.26742 23.356 6.40894 23.6346 6.82704C23.8214 7.10712 23.9783 7.40006 24.1054 7.70585C24.1104 7.71818 24.1105 7.732 24.1055 7.7444C24.1004 7.75679 24.0907 7.76676 24.0784 7.7722L22.9966 8.24819C22.9862 8.2528 22.9744 8.25335 22.9635 8.24972C22.9527 8.24607 22.9436 8.23851 22.9379 8.22848C22.885 8.13327 22.8355 8.02774 22.7852 7.92041ZM20.863 8.02713C20.2905 8.3079 19.137 8.87364 18.9691 8.79533C18.956 8.78945 18.9494 8.77926 18.9494 8.76479C18.949 8.34828 19.1299 8.08055 19.4897 7.88757C19.9116 7.66109 20.3412 7.4499 20.7786 7.25399C20.7863 7.25053 20.795 7.25018 20.8028 7.25305C20.8107 7.25589 20.8172 7.26172 20.8208 7.26926L21.1168 7.86988C21.1259 7.88837 21.1211 7.90192 21.1027 7.91049C21.0464 7.93719 20.9637 7.97775 20.863 8.02713ZM20.0821 10.0506C20.4672 9.87002 20.8601 9.68579 21.1947 9.45104C21.2108 9.43979 21.2149 9.42516 21.2072 9.40722L20.8269 8.52919C20.8227 8.5193 20.8224 8.50817 20.8261 8.49814C20.8299 8.48809 20.8374 8.47992 20.847 8.47533L22.2388 7.7947C22.2496 7.78947 22.262 7.78863 22.2734 7.79238C22.2848 7.79613 22.2943 7.80418 22.2999 7.8148C22.5703 8.33342 22.8164 8.86355 23.038 9.4052C23.0427 9.41666 23.0429 9.42948 23.0385 9.44112C23.0364 9.44672 23.0333 9.45184 23.0294 9.45626C23.0252 9.46103 23.0201 9.46501 23.0143 9.46792C22.9298 9.51042 22.8454 9.5526 22.7609 9.59449C22.5955 9.67649 22.43 9.75732 22.2645 9.83698C22.2093 9.8635 22.1652 9.89648 22.1322 9.93588C22.1283 9.94055 22.1255 9.94542 22.1239 9.95048C22.1224 9.95553 22.122 9.96077 22.1228 9.9662C22.1233 9.9697 22.1243 9.97325 22.1258 9.97688L22.4977 10.873C22.4999 10.8783 22.501 10.884 22.5009 10.8897C22.5009 10.894 22.5001 10.8984 22.4986 10.9026C22.4953 10.9122 22.4885 10.9203 22.4796 10.9252C22.0907 11.1421 21.6837 11.3313 21.2586 11.4929C20.7521 11.6855 20.453 11.6754 20.0671 11.2838C20.0646 11.2815 20.0628 11.2785 20.0618 11.2753C20.0608 11.2721 20.0606 11.2686 20.0612 11.2652C20.0619 11.2619 20.0633 11.2587 20.0654 11.256C20.0676 11.2533 20.0704 11.2511 20.0735 11.2497C20.5002 11.064 20.9231 10.8664 21.3423 10.6571C21.477 10.59 21.766 10.4408 21.6181 10.2358C21.6103 10.2248 21.5996 10.2186 21.5859 10.2173C21.4948 10.2076 21.4142 10.2197 21.3443 10.2535C20.8715 10.481 20.3951 10.7025 19.9151 10.918C19.9089 10.9207 19.9039 10.9205 19.8999 10.9176C19.8989 10.9169 19.898 10.916 19.8972 10.915C19.8962 10.9138 19.8954 10.9124 19.8946 10.9108L19.5947 10.3102C19.59 10.3007 19.5904 10.2929 19.5959 10.2867C19.5979 10.2844 19.6008 10.2823 19.6043 10.2804C19.7589 10.2021 19.9198 10.1267 20.0821 10.0506ZM23.2185 8.56539L24.1528 8.13561C24.1841 8.12126 24.2197 8.11991 24.252 8.1318C24.2842 8.14372 24.3104 8.16792 24.3249 8.19913L24.5154 8.61323C24.5202 8.62351 24.5237 8.63427 24.526 8.6453C24.5278 8.65388 24.5289 8.66264 24.5292 8.67147C24.5298 8.69165 24.5264 8.71181 24.5192 8.73081C24.5159 8.73945 24.5118 8.74777 24.507 8.75568C24.5013 8.76518 24.4946 8.77408 24.4869 8.78222C24.4729 8.79716 24.4561 8.80925 24.4374 8.81785L23.5514 9.22551C23.5327 9.2341 23.5126 9.23901 23.4921 9.23995C23.4716 9.24088 23.4512 9.23783 23.432 9.23096C23.4129 9.22409 23.3954 9.21353 23.3804 9.19991C23.3655 9.18627 23.3535 9.16984 23.3451 9.15152L23.155 8.73745C23.1406 8.70619 23.1393 8.67055 23.1512 8.63828C23.1569 8.62259 23.1657 8.60834 23.1766 8.59619C23.1883 8.58333 23.2024 8.57281 23.2185 8.56539ZM19.4033 9.85425L19.1601 9.36019C19.1546 9.34904 19.1513 9.33693 19.1505 9.32454C19.1503 9.32061 19.1503 9.31669 19.1505 9.31278C19.151 9.30434 19.1526 9.29598 19.1553 9.28793C19.1574 9.2819 19.16 9.27611 19.1633 9.27064C19.1645 9.26844 19.1659 9.26628 19.1674 9.2642C19.1693 9.26135 19.1715 9.2586 19.1738 9.25599C19.182 9.24665 19.192 9.23903 19.2031 9.23354L20.3296 8.67914C20.357 8.66574 20.3892 8.66515 20.4193 8.67752C20.4494 8.68986 20.4748 8.71418 20.49 8.74508L20.7019 9.17565C20.717 9.20654 20.7207 9.24152 20.7121 9.27287C20.7036 9.30424 20.6834 9.32943 20.656 9.34289L19.5295 9.89728C19.5071 9.90828 19.4812 9.90991 19.4575 9.90186C19.4339 9.89379 19.4144 9.87667 19.4033 9.85425ZM24.7042 9.22769C24.7043 9.23711 24.7045 9.24608 24.7048 9.25401C24.7051 9.26237 24.7056 9.2696 24.7064 9.27495C24.7788 9.74853 24.5175 9.96925 24.1408 10.1678C23.7891 10.353 23.3801 10.5488 22.9138 10.7552C22.9017 10.7606 22.8925 10.7576 22.886 10.7464C22.7772 10.5612 22.687 10.3674 22.6155 10.165C22.6093 10.1476 22.6099 10.1286 22.617 10.1116C22.6242 10.0945 22.6374 10.0808 22.6541 10.073L24.6589 9.12178C24.6661 9.11831 24.6726 9.11719 24.6782 9.11844C24.6852 9.11998 24.6909 9.1251 24.6955 9.13383C24.7028 9.14769 24.7035 9.18768 24.7041 9.22307V9.22366L24.7042 9.22769ZM9.45328 13.8805C15.7743 13.8415 22.0985 13.8266 28.4191 13.8729C29.0229 13.8774 29.6275 13.8887 30.233 13.9067C30.6688 13.9199 31.2043 14.3995 31.2646 14.8393C31.3201 15.2416 31.3384 15.6451 31.3196 16.0498C31.3194 16.0536 31.3178 16.0572 31.315 16.0598C31.3123 16.0625 31.3086 16.0639 31.3048 16.0639H7.27392C7.26791 16.0639 7.26344 16.0624 7.26045 16.0593C7.25774 16.0565 7.25633 16.0524 7.25621 16.047C7.24522 15.6761 7.25032 15.3569 7.27149 15.0894C7.28354 14.9398 7.31852 14.742 7.39248 14.6009C7.5509 14.2998 7.92155 13.9119 8.28942 13.9067C8.46452 13.9041 8.64394 13.8991 8.8217 13.894C9.03822 13.8879 9.25235 13.8819 9.45328 13.8805ZM31.3143 26.5881C31.3143 27.1699 31.3142 27.6718 31.2746 28.0639C31.2155 28.6444 30.8348 28.8751 30.368 29.1497C30.3565 29.1564 30.3442 29.1598 30.3311 29.1598C22.9977 29.16 15.6642 29.16 8.33084 29.1598C8.25821 29.1598 8.19241 29.1453 8.13344 29.1164C7.75847 28.9328 7.47933 28.6534 7.29602 28.2781C7.26732 28.2197 7.25299 28.1542 7.25299 28.0815C7.25166 25.4357 7.25178 22.7899 7.25339 20.144C7.25339 20.1309 7.25998 20.1243 7.2731 20.1243H31.3036C31.3172 20.1243 31.3241 20.1312 31.3241 20.1448C31.3251 22.1627 31.3221 24.1793 31.3148 26.1945C31.3144 26.3293 31.3144 26.4606 31.3143 26.5881ZM9.3697 23.4129C11.342 23.417 13.3141 23.4212 15.2878 23.4072C15.3007 23.4072 15.307 23.4008 15.3067 23.3879L15.2625 21.8631C15.2622 21.8505 15.2557 21.8442 15.2428 21.8442L8.11133 21.8064C8.10921 21.8064 8.10713 21.8069 8.10525 21.8077L8.10329 21.8088C8.1025 21.8094 8.10176 21.81 8.10109 21.8106C8.09956 21.8122 8.09842 21.814 8.09767 21.816C8.09712 21.8175 8.09685 21.8192 8.09685 21.8209V23.3904C8.09685 23.4038 8.10356 23.4105 8.11695 23.4105C8.53456 23.4112 8.95213 23.412 9.3697 23.4129ZM16.3178 21.851C18.0948 21.7988 19.8938 21.8132 21.6764 21.8466C21.684 21.8467 21.69 21.8485 21.6943 21.852C21.6995 21.8562 21.7022 21.8629 21.7025 21.8719L21.7479 23.3892C21.7482 23.4036 21.7412 23.4109 21.727 23.4109H16.2382C16.237 23.4109 16.2359 23.4107 16.2347 23.4105C16.2339 23.4103 16.2331 23.41 16.2323 23.4097C16.2304 23.4089 16.2287 23.4077 16.2273 23.4062C16.2259 23.4048 16.2247 23.4031 16.224 23.4012C16.2232 23.3993 16.2229 23.3972 16.223 23.3952C16.2247 23.2896 16.2247 23.1832 16.2242 23.0765C16.224 23.0332 16.2237 22.9897 16.2233 22.9462V22.9457C16.221 22.5977 16.2186 22.2472 16.2587 21.9049C16.2604 21.8904 16.2672 21.877 16.2781 21.8671C16.289 21.8572 16.303 21.8515 16.3178 21.851ZM8.11412 24.4863H18.7332C18.7427 24.4863 18.7504 24.494 18.7504 24.5036V26.0771C18.7504 26.0866 18.7427 26.0944 18.7332 26.0944H8.11412C8.10458 26.0944 8.09685 26.0866 8.09685 26.0771V24.5036C8.09685 24.494 8.10458 24.4863 8.11412 24.4863Z" fill="url(#paint0_linear_103_1994)"/>
<defs>
<linearGradient id="paint0_linear_103_1994" x1="16.0871" y1="0" x2="16.0871" y2="30" gradientUnits="userSpaceOnUse">
<stop stop-color="white"/>
<stop offset="1" stop-color="white"/>
</linearGradient>
</defs>
</svg>
