<svg width="25" height="24" viewBox="0 0 25 24" fill="none" xmlns="http://www.w3.org/2000/svg">
<path fill-rule="evenodd" clip-rule="evenodd" d="M12.8684 0H13.0505C19.6057 0.119228 24.8025 5.24472 24.9524 11.8202V12.1844C24.7979 18.689 19.687 23.8256 13.1801 24H12.7392C6.17832 23.8282 1.05629 18.6334 0.952393 12.084V11.9019C1.01372 9.0009 1.95661 6.45699 3.78103 4.27015C6.04185 1.56 9.35777 0.0624875 12.8684 0ZM22.9952 11.9989C22.9952 10.68 22.7355 9.37408 22.2307 8.15563C21.726 6.93718 20.9863 5.83008 20.0537 4.8975C19.1212 3.96494 18.0141 3.2252 16.7956 2.72051C15.5772 2.2158 14.2712 1.95604 12.9524 1.95604C10.2889 1.95604 7.73444 3.01411 5.85105 4.8975C3.96767 6.78091 2.90957 9.33533 2.90957 11.9989C2.90957 14.6624 3.96767 17.2168 5.85105 19.1002C7.73444 20.9836 10.2889 22.0417 12.9524 22.0417C14.2712 22.0417 15.5772 21.7819 16.7956 21.2772C18.0141 20.7725 19.1212 20.0328 20.0537 19.1002C20.9863 18.1676 21.726 17.0605 22.2307 15.8421C22.7355 14.6236 22.9952 13.3177 22.9952 11.9989ZM12.799 7.70607C10.7587 7.57074 10.5934 4.75974 12.5702 4.40013C13.7353 4.18811 14.8202 4.92498 14.7236 6.17176C14.645 7.19157 13.787 7.77163 12.799 7.70607ZM15.7319 19.8828V18.0475C15.7319 18.0451 15.7315 18.0426 15.7305 18.0404C15.7299 18.0389 15.7291 18.0375 15.7282 18.0362C15.7276 18.0355 15.7271 18.0349 15.7264 18.0343C15.7247 18.0325 15.7226 18.0311 15.7203 18.0302C15.7181 18.0292 15.7156 18.0288 15.7132 18.0288H14.6485C14.646 18.0288 14.6436 18.0283 14.6413 18.0273C14.639 18.0264 14.637 18.025 14.6352 18.0233C14.6344 18.0224 14.6336 18.0215 14.6329 18.0205C14.6322 18.0195 14.6316 18.0183 14.6311 18.0171C14.6302 18.0149 14.6297 18.0124 14.6297 18.01V9.0763C14.6297 9.07329 14.629 9.07035 14.6276 9.06771C14.6268 9.06599 14.6256 9.0644 14.6242 9.06301C14.6207 9.05949 14.6159 9.05751 14.6109 9.05751H10.0191C10.0141 9.05751 10.0093 9.05949 10.0058 9.06301C10.0023 9.06653 10.0003 9.0713 10.0003 9.0763V11.0036C10.0003 11.0051 10.0005 11.0067 10.0009 11.0082C10.0011 11.0091 10.0014 11.0099 10.0017 11.0108C10.0027 11.013 10.0041 11.0151 10.0058 11.0169C10.0076 11.0186 10.0096 11.02 10.0119 11.0209C10.0135 11.0216 10.0152 11.022 10.0169 11.0222C10.0177 11.0223 10.0184 11.0224 10.0191 11.0224H11.2371C11.2421 11.0224 11.2469 11.0243 11.2504 11.0279C11.2539 11.0314 11.2559 11.0362 11.2559 11.0412V18.01C11.2559 18.0124 11.2554 18.0149 11.2545 18.0171C11.2535 18.0194 11.2522 18.0215 11.2504 18.0233C11.2486 18.025 11.2466 18.0264 11.2443 18.0273C11.242 18.0283 11.2396 18.0288 11.2371 18.0288H9.95202C9.94955 18.0288 9.94711 18.0292 9.94483 18.0302C9.94255 18.0311 9.94049 18.0325 9.93873 18.0343C9.93697 18.036 9.93558 18.0381 9.93465 18.0404C9.93371 18.0426 9.93322 18.0451 9.93322 18.0475V19.882C9.93322 19.8845 9.93371 19.887 9.93465 19.8892C9.93558 19.8915 9.93697 19.8936 9.93873 19.8953C9.94049 19.8971 9.94255 19.8985 9.94483 19.8994C9.94711 19.9003 9.94955 19.9008 9.95202 19.9008L15.7132 19.9016C15.7156 19.9016 15.7181 19.9011 15.7203 19.9002C15.7226 19.8992 15.7247 19.8978 15.7264 19.8961C15.7273 19.8953 15.728 19.8944 15.7287 19.8935C15.7294 19.8924 15.73 19.8912 15.7305 19.89C15.7315 19.8877 15.7319 19.8853 15.7319 19.8828Z" fill="white" fill-opacity="0.5"/>
</svg>
