<svg width="20" height="24" viewBox="0 0 20 24" fill="none" xmlns="http://www.w3.org/2000/svg">
<path fill-rule="evenodd" clip-rule="evenodd" d="M5.94736 0H6.11142C6.6026 0.0704269 7.05048 0.265297 7.49295 0.457832C8.20198 0.766365 8.89723 1.06888 9.73485 0.84375C9.79752 0.826881 9.90166 0.796394 10.0366 0.756912C10.9964 0.475937 13.5128 -0.260651 13.715 0.212814C13.8875 0.616402 13.6569 1.32468 13.5228 1.72172C13.086 3.0136 12.2891 4.28767 11.2761 5.2064C11.274 5.2083 11.2723 5.2107 11.2714 5.21338C11.2711 5.21441 11.2708 5.21546 11.2706 5.21654L11.2705 5.21784C11.2704 5.21915 11.2705 5.22045 11.2707 5.22176C11.2709 5.2229 11.2712 5.22402 11.2716 5.2251C11.2721 5.22633 11.2727 5.22752 11.2735 5.22862L11.2741 5.22945C11.2749 5.23041 11.2757 5.2313 11.2767 5.23208C11.2774 5.23267 11.2782 5.2332 11.279 5.23366L11.2808 5.23453C12.4976 5.75484 13.5959 6.56438 14.5597 7.46297C15.95 8.76015 17.1264 10.2288 18.0889 11.8688C19.6944 14.6039 21.0983 18.8184 18.5572 21.5245C16.6639 23.5411 13.3775 23.9583 10.7816 24H9.9261C9.3317 23.9803 8.73798 23.9506 8.14485 23.9109C4.95781 23.6972 1.0789 22.6336 0.222016 19.0153C-0.253738 17.0048 0.306382 14.8087 1.14734 12.9778C2.10764 10.8872 3.40782 9.03561 5.04781 7.42312C5.86482 6.6197 6.78735 5.88938 7.81064 5.36673C7.81394 5.36494 7.81677 5.36236 7.81883 5.3592C7.82085 5.35602 7.82208 5.35238 7.82231 5.34863C7.82254 5.34487 7.82181 5.34109 7.82016 5.33771C7.81851 5.3343 7.81604 5.33139 7.81297 5.32922C6.62 4.51172 5.73546 3.27704 5.28452 1.90782C5.06094 1.22813 4.91281 0.115311 5.94736 0ZM9.29517 17.4675C8.78188 17.3362 8.36092 16.9852 8.20015 16.4756C7.89876 15.5231 6.74139 15.968 7.06622 16.8422C7.45812 17.8969 8.21045 18.4397 9.29233 18.69C9.29947 18.6917 9.3051 18.6945 9.30917 18.6987C9.31435 18.7039 9.317 18.7112 9.31719 18.7205C9.31888 18.8076 9.31627 18.8955 9.31366 18.9823C9.30528 19.2617 9.29727 19.5295 9.43392 19.7227C9.64623 20.0227 10.0789 20.0574 10.3339 19.7855C10.5252 19.5821 10.5161 19.2667 10.5079 18.9817V18.9812C10.5059 18.911 10.5039 18.8425 10.505 18.7781C10.5053 18.7619 10.5136 18.753 10.5298 18.7514C11.9834 18.6253 13.2388 17.6498 12.9462 16.0556C12.7297 14.8767 11.5569 14.4337 10.5331 14.2177C10.5131 14.2136 10.5031 14.2012 10.5031 14.1806V11.9995C10.5031 11.9814 10.512 11.9741 10.5298 11.9775C11.0722 12.0839 11.5058 12.3056 11.7068 12.8297C11.7669 12.9866 11.8117 13.0841 11.8414 13.1222C12.2281 13.6186 13.0367 13.1934 12.8717 12.5967C12.5712 11.512 11.6126 10.9102 10.5317 10.7845C10.5239 10.7836 10.5168 10.7799 10.5115 10.774C10.509 10.7712 10.507 10.768 10.5056 10.7645C10.5041 10.7608 10.5032 10.7568 10.5031 10.7527C10.503 10.6932 10.5046 10.6285 10.5063 10.5618V10.561C10.5115 10.3451 10.5174 10.1075 10.468 9.95155C10.3128 9.46124 9.64906 9.39093 9.39876 9.84093C9.29324 10.0308 9.30597 10.352 9.31613 10.6084V10.6101C9.31815 10.6607 9.32007 10.7087 9.32094 10.7527C9.32126 10.7701 9.31265 10.7805 9.29517 10.7836C8.59342 10.9055 7.91748 11.1848 7.47638 11.7684C6.92423 12.4997 6.89607 13.6331 7.59453 14.3119C8.04826 14.7525 8.67407 14.993 9.28015 15.128C9.29132 15.1305 9.3013 15.1368 9.30844 15.1457C9.31233 15.1506 9.31526 15.1561 9.31714 15.162C9.3187 15.1669 9.31952 15.172 9.31952 15.1772V17.4488C9.31952 17.4653 9.31142 17.4716 9.29517 17.4675ZM8.26158 13.1517C8.15282 12.4997 8.71999 12.0895 9.29562 11.9916C9.31155 11.9891 9.31952 11.9958 9.31952 12.0117V13.8867C9.31952 13.8951 9.31755 13.9009 9.31361 13.9042C9.30949 13.9076 9.30318 13.9082 9.29471 13.9059C8.91971 13.8094 8.33514 13.5947 8.26158 13.1517ZM10.5317 17.5589C11.1031 17.5144 11.7383 17.2125 11.8039 16.582C11.884 15.8119 11.1256 15.5794 10.5458 15.436C10.5407 15.4347 10.5354 15.4347 10.5303 15.4358C10.5252 15.437 10.5204 15.4392 10.5163 15.4425C10.5141 15.4443 10.5121 15.4463 10.5103 15.4485C10.5089 15.4504 10.5076 15.4524 10.5066 15.4546C10.5043 15.4593 10.5031 15.4644 10.5031 15.4697V17.5322C10.5031 17.5513 10.5126 17.5602 10.5317 17.5589Z" fill="white" fill-opacity="0.5"/>
</svg>
